<svg width="66.487076mm" height="66.487083mm" viewBox="0 0 66.487076 66.487083" version="1.1" id="svg1" xmlns="http://www.w3.org/2000/svg" xmlns:xlink="http://www.w3.org/1999/xlink" xmlns:bx="https://boxy-svg.com">
  <defs id="defs6">
    <linearGradient id="linearGradient1">
      <stop style="stop-color:#0000ff;stop-opacity:1;" offset="0" id="stop1"></stop>
      <stop style="stop-color:#1f4fff;stop-opacity:1;" offset="1" id="stop2"></stop>
    </linearGradient>
    <linearGradient id="gradient-0" bx:pinned="true">
      <stop offset="0.413" style="stop-color: rgb(255, 230, 0);"></stop>
    </linearGradient>
    <linearGradient gradientUnits="userSpaceOnUse" x1="114.266" y1="154.162" x2="114.266" y2="187.406" id="gradient-2">
      <stop offset="0" style="stop-color:#fcff0a;stop-opacity:1;" id="stop3"></stop>
      <stop offset="1" style="stop-color:#c65100;stop-opacity:1;" id="stop4"></stop>
    </linearGradient>
    <linearGradient gradientUnits="userSpaceOnUse" x1="130.965" y1="120.919" x2="130.965" y2="170.875" id="gradient-3">
      <stop offset="0" style="stop-color:#e8005a;stop-opacity:1;" id="stop5"></stop>
      <stop offset="1" style="stop-color:#fe55a0;stop-opacity:1;" id="stop6"></stop>
    </linearGradient>
    <radialGradient gradientUnits="userSpaceOnUse" cx="97.726" cy="145.763" r="16.626" id="linearGradient1-0" xlink:href="#linearGradient1"></radialGradient>
    <linearGradient gradientUnits="userSpaceOnUse" x1="97.726" y1="120.919" x2="97.726" y2="170.607" id="linearGradient1-1" xlink:href="#linearGradient1"></linearGradient>
  </defs>
  <g id="layer1" transform="translate(-81.099636,-120.91881)">
    <path style="stroke-width: 2; stroke-linecap: round; fill: url(#linearGradient1-1);" id="path1" d="m 85.45187,170.60697 a 33.243542,33.243542 0 0 1 0.155039,-33.15868 33.243542,33.243542 0 0 1 28.745411,-16.52948 l -0.009,33.24354 z"></path>
    <path style="stroke-width: 2; stroke-linecap: round; fill-rule: nonzero; fill: url(#gradient-2);" id="path2" d="m 143.08172,170.8725 a 33.243542,33.243542 0 0 1 -28.8939,16.53303 33.243542,33.243542 0 0 1 -28.738116,-16.80235 l 28.893466,-16.44083 z"></path>
    <path style="stroke-width: 2; stroke-linecap: round; fill: url(#gradient-3);" id="path3" d="m 114.34682,120.91881 a 33.243542,33.243542 0 0 1 28.81316,16.66874 33.243542,33.243542 0 0 1 -0.0796,33.28721 l -28.73723,-16.71241 z"></path>
  </g>
</svg>